<svg width="56" height="57" viewBox="0 0 56 57" fill="none" xmlns="http://www.w3.org/2000/svg">
<path d="M43.2141 18.6465H44.4062L43.5707 17.7961L33.2785 7.3201L32.4219 6.44813V7.67051V18.1465V18.6465H32.9219H43.2141ZM43.3125 49.9297H43.8125V49.4297V21.9316V21.4316H43.3125H31.5C31.0263 21.4316 30.5702 21.2402 30.2325 20.8965C29.8945 20.5525 29.7031 20.084 29.7031 19.5938V7.57031V7.07031H29.2031H12.6875H12.1875V7.57031V49.4297V49.9297H12.6875H43.3125ZM34.6105 4.43615L46.3793 16.4151C46.6146 16.6546 46.75 16.9849 46.75 17.3282V51.6562C46.75 52.3737 46.1835 52.9375 45.5 52.9375H10.5C9.81648 52.9375 9.25 52.3737 9.25 51.6562V5.34375C9.25 4.62626 9.81648 4.0625 10.5 4.0625H33.7312C34.0589 4.0625 34.3743 4.19567 34.6105 4.43615ZM17.5625 37.4629V34.9004H27.5V37.4629H17.5625ZM38.4375 29.8926H17.5625V27.3301H38.4375V29.8926Z" fill="white" stroke="black"/>
</svg>
