<svg width="16" height="16" viewBox="0 0 16 16" fill="none" xmlns="http://www.w3.org/2000/svg">
<rect x="0.5" y="0.5" width="15" height="15" fill="white" stroke="black"/>
<path d="M2.96977 2.96975C3.11042 2.82915 3.30115 2.75016 3.50002 2.75016C3.6989 2.75016 3.88963 2.82915 4.03027 2.96975L8.00002 6.9395L11.9698 2.96975C12.039 2.89812 12.1217 2.84098 12.2132 2.80167C12.3047 2.76237 12.4031 2.74168 12.5027 2.74081C12.6023 2.73995 12.7011 2.75892 12.7932 2.79663C12.8854 2.83434 12.9691 2.89003 13.0396 2.96045C13.11 3.03087 13.1657 3.11461 13.2034 3.20678C13.2411 3.29896 13.2601 3.39772 13.2592 3.4973C13.2583 3.59689 13.2377 3.6953 13.1983 3.7868C13.159 3.87831 13.1019 3.96106 13.0303 4.03025L9.06052 8L13.0303 11.9697C13.1669 12.1112 13.2425 12.3007 13.2408 12.4973C13.2391 12.6939 13.1602 12.8821 13.0211 13.0211C12.8821 13.1602 12.694 13.239 12.4973 13.2408C12.3007 13.2425 12.1112 13.1669 11.9698 13.0302L8.00002 9.0605L4.03027 13.0302C3.88882 13.1669 3.69937 13.2425 3.50272 13.2408C3.30607 13.239 3.11797 13.1602 2.97891 13.0211C2.83985 12.8821 2.76098 12.6939 2.75927 12.4973C2.75756 12.3007 2.83315 12.1112 2.96977 11.9697L6.93952 8L2.96977 4.03025C2.82917 3.8896 2.75018 3.69887 2.75018 3.5C2.75018 3.30113 2.82917 3.1104 2.96977 2.96975V2.96975Z" fill="white"/>
</svg>
