<svg width="39" height="50" viewBox="0 0 39 50" fill="none" xmlns="http://www.w3.org/2000/svg">
<path d="M34.4641 15.084H35.6562L34.8207 14.2336L24.5285 3.7576L23.6719 2.88563V4.10801V14.584V15.084H24.1719H34.4641ZM34.5625 46.3672H35.0625V45.8672V18.3691V17.8691H34.5625H22.75C22.2763 17.8691 21.8202 17.6777 21.4825 17.334C21.1445 16.99 20.9531 16.5215 20.9531 16.0312V4.00781V3.50781H20.4531H3.9375H3.4375V4.00781V45.8672V46.3672H3.9375H34.5625ZM25.8605 0.873653L37.6293 12.8526C37.8646 13.0921 38 13.4224 38 13.7657V48.0938C38 48.8112 37.4335 49.375 36.75 49.375H1.75C1.06648 49.375 0.5 48.8112 0.5 48.0938V1.78125C0.5 1.06376 1.06648 0.5 1.75 0.5H24.9812C25.3089 0.5 25.6243 0.633168 25.8605 0.873653Z" fill="white" stroke="black"/>
<path d="M7.2666 35.1953H8.64746V35.2637C8.64746 35.4596 8.69987 35.6351 8.80469 35.79C8.90951 35.945 9.07129 36.0612 9.29004 36.1387C9.51335 36.2161 9.75944 36.2549 10.0283 36.2549C10.3109 36.2549 10.5729 36.1911 10.8145 36.0635C11.0605 35.9313 11.2383 35.7308 11.3477 35.4619C11.457 35.1885 11.5117 34.5915 11.5117 33.6709V26.3906H12.8857V33.6982C12.8857 34.8558 12.7604 35.6488 12.5098 36.0771C12.2637 36.501 11.9583 36.8132 11.5938 37.0137C11.2292 37.2188 10.7324 37.3213 10.1035 37.3213C9.06901 37.3213 8.33757 37.1071 7.90918 36.6787C7.48079 36.2503 7.2666 35.7786 7.2666 35.2637V35.1953ZM16.2764 37H14.8955V26.3906H17.8486C18.9743 26.3906 19.7673 26.5068 20.2275 26.7393C20.6924 26.9671 21.041 27.3044 21.2734 27.751C21.5104 28.193 21.6289 28.708 21.6289 29.2959C21.6289 30.2894 21.2894 31.1234 20.6104 31.7979C19.9359 32.4723 18.9287 32.8096 17.5889 32.8096H16.2764V37ZM16.2764 31.75H17.2061C18.4274 31.75 19.2318 31.5153 19.6191 31.0459C20.0065 30.5765 20.2002 30.0137 20.2002 29.3574C20.2002 28.7878 20.043 28.3298 19.7285 27.9834C19.4186 27.6325 18.8011 27.457 17.876 27.457H16.2764V31.75ZM30.6592 36.5146C29.5335 37.0524 28.4603 37.3213 27.4395 37.3213C26.3776 37.3213 25.5186 37.1117 24.8623 36.6924C24.2061 36.2686 23.682 35.6602 23.29 34.8672C22.8981 34.0742 22.7021 33.0579 22.7021 31.8184C22.7021 30.4193 22.8867 29.3324 23.2559 28.5576C23.6296 27.7829 24.1536 27.1768 24.8281 26.7393C25.5026 26.2972 26.3024 26.0762 27.2275 26.0762C27.861 26.0762 28.4375 26.1764 28.957 26.377C29.4766 26.5775 29.889 26.8828 30.1943 27.293C30.5042 27.6986 30.6592 28.1019 30.6592 28.5029V28.5713H29.3809V28.5029C29.3809 28.2568 29.2852 28.029 29.0938 27.8193C28.9069 27.6051 28.6585 27.4388 28.3486 27.3203C28.0433 27.1973 27.6947 27.1357 27.3027 27.1357C26.2728 27.1357 25.4867 27.5391 24.9443 28.3457C24.402 29.1523 24.1309 30.2643 24.1309 31.6816C24.1309 33.0944 24.4089 34.2109 24.9648 35.0312C25.5208 35.8516 26.3047 36.2617 27.3164 36.2617C27.9089 36.2617 28.597 36.1204 29.3809 35.8379V32.8096H26.9951V31.75H30.6592V36.5146Z" fill="black"/>
</svg>
