<svg width="676" height="365" viewBox="0 0 676 365" fill="none" xmlns="http://www.w3.org/2000/svg">
<g filter="url(#filter0_d)">
<g clip-path="url(#clip0)">
<g filter="url(#filter1_b)">
<rect x="7" y="7" width="660" height="349" fill="white"/>
</g>
<rect x="639.5" y="7.5" width="27" height="348" fill="white" stroke="black"/>
<rect x="7.5" y="328.5" width="659" height="27" fill="white" stroke="black"/>
<rect x="-0.5" y="0.5" width="27" height="27" transform="matrix(-1 0 0 1 639 328)" fill="white" stroke="black"/>
<path d="M624.4 332L634 341.778L624.4 351.556V346.667H618V336.889H624.4V332Z" stroke="black"/>
<rect x="-0.5" y="-0.5" width="27" height="27" transform="matrix(1.19249e-08 -1 -1 -1.19249e-08 666 328)" fill="white" stroke="black"/>
<path d="M663 313.4L653.222 323L643.444 313.4L648.333 313.4L648.333 307L658.111 307L658.111 313.4L663 313.4Z" stroke="black"/>
<rect x="666.5" y="63.5" width="27" height="27" transform="rotate(90 666.5 63.5)" fill="white" stroke="black"/>
<path d="M663 78.6L653.222 69L643.444 78.6L648.333 78.6L648.333 85L658.111 85L658.111 78.6L663 78.6Z" stroke="black"/>
<rect x="7.5" y="328.5" width="27" height="27" fill="white" stroke="black"/>
<path d="M22.6 332L13 341.778L22.6 351.556V346.667H29V336.889H22.6V332Z" stroke="black"/>
<rect x="639.5" y="328.5" width="27" height="27" fill="white" stroke="black"/>
<rect x="648.5" y="337.5" width="12" height="12" fill="white" stroke="black"/>
<rect x="645.5" y="334.5" width="9" height="9" fill="white" stroke="black"/>
</g>
<path d="M7.5 7.5H666.5V355.5H7.5V7.5Z" stroke="black"/>
</g>
<g clip-path="url(#clip1)">
<rect width="658" height="29" transform="translate(8 34.9724)" fill="white"/>
<path d="M290.823 53.4175V52.3169C290.823 51.7427 291.001 51.1183 291.356 50.4438C291.712 49.7648 292.309 49.1017 293.147 48.4546L293.865 47.9009C294.822 47.1626 295.43 46.6112 295.69 46.2466C295.945 45.882 296.073 45.5015 296.073 45.105C296.073 44.6994 295.902 44.3394 295.56 44.0249C295.218 43.7104 294.726 43.5532 294.084 43.5532C293.5 43.5532 293.067 43.6672 292.785 43.895C292.502 44.1183 292.361 44.3713 292.361 44.6538V44.7222H291.089V44.6538C291.089 44.2801 291.215 43.9269 291.465 43.5942C291.721 43.2616 292.062 42.995 292.491 42.7944C292.924 42.5939 293.468 42.4937 294.125 42.4937C295.323 42.4937 296.178 42.7489 296.688 43.2593C297.198 43.7651 297.454 44.3735 297.454 45.0845C297.454 45.4627 297.374 45.8433 297.214 46.2261C297.055 46.6089 296.738 47.0099 296.264 47.4292C295.795 47.8439 295.412 48.1538 295.116 48.3589L294.596 48.7144C292.965 49.8354 292.149 50.9269 292.149 51.9888V52.2485H297.666V53.4175H290.823ZM301.651 48.1128V47.0532H302.444C303.064 47.0532 303.549 46.9552 303.9 46.7593C304.251 46.5633 304.529 46.3195 304.734 46.0278C304.939 45.7316 305.042 45.4012 305.042 45.0366C305.042 44.5763 304.873 44.214 304.536 43.9497C304.198 43.6854 303.752 43.5532 303.196 43.5532C302.877 43.5532 302.578 43.5942 302.3 43.6763C302.022 43.7583 301.808 43.8973 301.658 44.0933C301.512 44.2892 301.439 44.4943 301.439 44.7085V44.7769H300.222V44.7085C300.222 44.1525 300.457 43.6444 300.926 43.1841C301.396 42.7238 302.175 42.4937 303.264 42.4937C304.299 42.4937 305.076 42.7147 305.595 43.1567C306.115 43.5988 306.375 44.1685 306.375 44.8657C306.375 45.2485 306.299 45.6063 306.149 45.939C305.999 46.2671 305.775 46.561 305.479 46.8208C305.187 47.0806 304.766 47.2902 304.214 47.4497C305.076 47.6958 305.721 48.0627 306.149 48.5503C306.577 49.0334 306.792 49.6372 306.792 50.3618C306.792 51.214 306.491 51.991 305.889 52.6929C305.292 53.3901 304.385 53.7388 303.169 53.7388C302.107 53.7388 301.332 53.5132 300.844 53.062C300.357 52.6063 300.113 52.0936 300.113 51.5239V51.4556H301.384V51.5239C301.384 51.9067 301.562 52.1938 301.918 52.3853C302.278 52.5767 302.738 52.6724 303.298 52.6724C303.736 52.6724 304.121 52.5926 304.454 52.4331C304.786 52.269 305.039 52.0047 305.212 51.6401C305.386 51.2756 305.472 50.8791 305.472 50.4507C305.472 49.7899 305.21 49.2362 304.686 48.7896C304.167 48.3384 303.369 48.1128 302.294 48.1128H301.651ZM309.499 53.4175V52.3169C309.499 51.7427 309.676 51.1183 310.032 50.4438C310.387 49.7648 310.984 49.1017 311.823 48.4546L312.541 47.9009C313.498 47.1626 314.106 46.6112 314.366 46.2466C314.621 45.882 314.749 45.5015 314.749 45.105C314.749 44.6994 314.578 44.3394 314.236 44.0249C313.894 43.7104 313.402 43.5532 312.759 43.5532C312.176 43.5532 311.743 43.6672 311.461 43.895C311.178 44.1183 311.037 44.3713 311.037 44.6538V44.7222H309.765V44.6538C309.765 44.2801 309.891 43.9269 310.141 43.5942C310.396 43.2616 310.738 42.995 311.167 42.7944C311.6 42.5939 312.144 42.4937 312.8 42.4937C313.999 42.4937 314.853 42.7489 315.364 43.2593C315.874 43.7651 316.129 44.3735 316.129 45.0845C316.129 45.4627 316.05 45.8433 315.89 46.2261C315.731 46.6089 315.414 47.0099 314.94 47.4292C314.471 47.8439 314.088 48.1538 313.792 48.3589L313.272 48.7144C311.641 49.8354 310.825 50.9269 310.825 51.9888V52.2485H316.341V53.4175H309.499ZM320.005 53.4175H318.625V42.8081H320.005V47.8735L324.435 42.8081H326.007L321.626 47.7847L326.684 53.4175H324.955L320.005 47.8735V53.4175ZM332.584 45.7817H333.855V53.4175H332.584V45.7817ZM332.584 44.0864V42.8081H333.855V44.0864H332.584ZM337.15 53.4175H335.879V45.7817H337.15V47.1011C337.419 46.6864 337.679 46.3787 337.929 46.1782C338.184 45.9777 338.449 45.8273 338.722 45.7271C339 45.6222 339.308 45.5698 339.645 45.5698C340.124 45.5698 340.552 45.6678 340.93 45.8638C341.313 46.0597 341.609 46.3491 341.819 46.7319C342.029 47.1102 342.133 47.7186 342.133 48.5571V53.4175H340.862V49.104C340.862 48.4204 340.816 47.9373 340.725 47.6548C340.634 47.3677 340.456 47.1444 340.192 46.9849C339.928 46.8208 339.641 46.7388 339.331 46.7388C338.957 46.7388 338.601 46.8481 338.264 47.0669C337.927 47.2856 337.656 47.591 337.451 47.9829C337.25 48.3748 337.15 48.9354 337.15 49.6646V53.4175ZM353.98 42.3843H355.252V53.4175H353.98V52.0913C353.72 52.5835 353.467 52.9253 353.221 53.1167C352.975 53.3081 352.697 53.4403 352.387 53.5132C352.082 53.5907 351.779 53.6294 351.478 53.6294C350.904 53.6294 350.375 53.4722 349.892 53.1577C349.409 52.8387 349.033 52.3647 348.764 51.7358C348.495 51.1069 348.361 50.4006 348.361 49.6167C348.361 48.4546 348.641 47.4907 349.202 46.7251C349.762 45.9549 350.544 45.5698 351.546 45.5698C351.875 45.5698 352.182 45.6177 352.469 45.7134C352.756 45.8045 353.012 45.9435 353.235 46.1304C353.463 46.3127 353.711 46.6408 353.98 47.1147V42.3843ZM353.98 49.5962C353.98 48.7303 353.793 48.0194 353.42 47.4634C353.046 46.9074 352.522 46.6294 351.847 46.6294C351.227 46.6294 350.712 46.8755 350.302 47.3677C349.892 47.8599 349.687 48.5959 349.687 49.5757C349.687 50.7196 349.885 51.5148 350.282 51.9614C350.678 52.4035 351.189 52.6245 351.813 52.6245C352.219 52.6245 352.595 52.5015 352.941 52.2554C353.292 52.0093 353.552 51.647 353.72 51.1685C353.893 50.6899 353.98 50.1659 353.98 49.5962ZM357.166 45.7817H358.437V53.4175H357.166V45.7817ZM357.166 44.0864V42.8081H358.437V44.0864H357.166ZM359.989 51.4009H361.26V51.4282C361.26 51.7563 361.386 52.0298 361.636 52.2485C361.887 52.4627 362.311 52.5698 362.908 52.5698C363.432 52.5698 363.856 52.4422 364.179 52.187C364.507 51.9318 364.671 51.631 364.671 51.2847C364.671 50.8153 364.352 50.4826 363.714 50.2866L363.065 50.0884L362.634 49.9517L361.753 49.6782C360.745 49.3091 360.242 48.6961 360.242 47.8394C360.242 47.2378 360.486 46.7091 360.973 46.2534C361.461 45.7977 362.185 45.5698 363.147 45.5698C364.095 45.5698 364.769 45.7658 365.171 46.1577C365.572 46.5451 365.772 46.9757 365.772 47.4497V47.4771H364.494V47.4497C364.494 47.1945 364.364 46.994 364.104 46.8481C363.849 46.7023 363.507 46.6294 363.079 46.6294C362.568 46.6294 362.176 46.7365 361.903 46.9507C361.634 47.1603 361.5 47.4201 361.5 47.73C361.5 47.967 361.586 48.1606 361.759 48.311C361.937 48.4569 362.233 48.589 362.648 48.7075L363.263 48.8784L363.708 49.0083C364.327 49.186 364.712 49.3114 364.863 49.3843C365.018 49.4572 365.173 49.5506 365.328 49.6646C365.542 49.8286 365.699 50.0269 365.799 50.2593C365.904 50.4917 365.957 50.7629 365.957 51.0728C365.957 51.7928 365.697 52.3989 365.177 52.8911C364.662 53.3833 363.908 53.6294 362.915 53.6294C362.286 53.6294 361.764 53.536 361.349 53.3491C360.934 53.1623 360.604 52.9048 360.358 52.5767C360.112 52.244 359.989 51.8612 359.989 51.4282V51.4009ZM368.923 53.4175H367.597V42.3843H368.923V49.4185L372.314 45.7817H373.784L370.475 49.3296L373.907 53.4175H372.314L368.923 49.4185V53.4175Z" fill="black"/>
<path d="M554.366 53.4175V44.1274L552.219 44.9819V43.7993L554.366 42.8081H555.637V53.4175H554.366ZM561.557 47.9556V42.8081H567.019V43.9771H562.726V46.8413H563.047C564.146 46.8413 564.996 46.978 565.597 47.2515C566.199 47.5203 566.657 47.9009 566.971 48.3931C567.286 48.8807 567.443 49.4731 567.443 50.1704C567.443 51.0955 567.156 51.9227 566.582 52.6519C566.007 53.3765 565.132 53.7388 563.957 53.7388C563.022 53.7388 562.273 53.5337 561.708 53.1235C561.147 52.7088 560.867 52.2098 560.867 51.6265V51.5581H562.138V51.6265C562.138 51.9318 562.3 52.1847 562.624 52.3853C562.947 52.5812 563.385 52.6792 563.936 52.6792C564.679 52.6792 565.228 52.4399 565.584 51.9614C565.939 51.4784 566.117 50.9383 566.117 50.3413C566.117 49.6668 565.88 49.1017 565.406 48.646C564.932 48.1857 563.973 47.9556 562.528 47.9556H561.557ZM571.339 48.4683C571.649 48.0627 571.955 47.7573 572.255 47.5522C572.556 47.3472 572.857 47.1968 573.158 47.1011C573.459 47.0008 573.784 46.9507 574.135 46.9507C575.047 46.9507 575.776 47.2765 576.323 47.9282C576.874 48.5754 577.15 49.3615 577.15 50.2866C577.15 50.9338 577.006 51.5216 576.719 52.0503C576.437 52.5789 576.04 52.9937 575.53 53.2944C575.024 53.5907 574.47 53.7388 573.869 53.7388C573.172 53.7388 572.515 53.5337 571.9 53.1235C571.289 52.7088 570.827 52.0868 570.512 51.2573C570.198 50.4279 570.041 49.4025 570.041 48.1812C570.041 46.4494 570.394 45.0685 571.1 44.0386C571.811 43.0086 572.83 42.4937 574.156 42.4937C575.058 42.4937 575.737 42.6919 576.193 43.0884C576.653 43.4849 576.883 43.936 576.883 44.4419V44.5103H575.612V44.4419C575.612 44.2231 575.491 44.0203 575.25 43.8335C575.013 43.6466 574.655 43.5532 574.176 43.5532C573.616 43.5532 573.124 43.7218 572.7 44.0591C572.276 44.3963 571.941 44.95 571.695 45.7202C571.453 46.4858 571.333 47.2765 571.333 48.0923L571.339 48.4683ZM573.869 52.6724C574.425 52.6724 574.89 52.4422 575.263 51.9819C575.637 51.5171 575.824 50.9383 575.824 50.2456C575.824 49.5575 575.626 49.0129 575.229 48.6118C574.837 48.2108 574.359 48.0103 573.794 48.0103C573.169 48.0103 572.661 48.2404 572.269 48.7007C571.877 49.1564 571.681 49.701 571.681 50.3345C571.681 50.7537 571.777 51.1525 571.968 51.5308C572.164 51.9045 572.431 52.1893 572.768 52.3853C573.105 52.5767 573.472 52.6724 573.869 52.6724ZM580.547 53.4175H579.167V42.8081H580.547V47.8735L584.977 42.8081H586.549L582.168 47.7847L587.226 53.4175H585.497L580.547 47.8735V53.4175ZM597.836 53.4175C597.703 53.0073 597.637 52.6541 597.637 52.3579C597.081 52.9093 596.605 53.2603 596.209 53.4106C595.817 53.5565 595.441 53.6294 595.081 53.6294C594.475 53.6294 593.953 53.4448 593.515 53.0757C593.082 52.702 592.866 52.1893 592.866 51.5376C592.866 50.7993 593.171 50.2297 593.782 49.8286C594.397 49.4276 595.454 49.0812 596.954 48.7896L597.637 48.6597V47.7983C597.637 47.3289 597.48 47.0008 597.166 46.814C596.851 46.6226 596.473 46.5269 596.031 46.5269C595.502 46.5269 595.09 46.6431 594.794 46.8755C594.497 47.1079 594.349 47.3791 594.349 47.689V47.7983H592.968V47.6958C592.968 47.3586 593.11 47.0099 593.392 46.6499C593.679 46.2899 594.058 46.0187 594.527 45.8364C595.001 45.6541 595.518 45.563 596.079 45.563C596.635 45.563 597.141 45.6496 597.596 45.8228C598.052 45.9959 598.385 46.2306 598.594 46.5269C598.804 46.8185 598.909 47.37 598.909 48.1812V51.1479C598.909 51.4715 598.916 51.8133 598.929 52.1733C598.948 52.5288 599.03 52.9435 599.175 53.4175H597.836ZM597.637 49.562L597.255 49.6577C595.965 49.9722 595.14 50.2707 594.78 50.5532C594.42 50.8358 594.24 51.173 594.24 51.5649C594.24 51.7655 594.292 51.9523 594.397 52.1255C594.506 52.2987 594.666 52.4331 594.876 52.5288C595.085 52.6245 595.293 52.6724 595.498 52.6724C595.853 52.6724 596.202 52.5698 596.544 52.3647C596.89 52.1551 597.159 51.8771 597.35 51.5308C597.542 51.1844 597.637 50.7811 597.637 50.3208V49.562ZM603.14 53.4175L600.03 45.7817H601.397L603.844 51.77L606.346 45.7817H607.611L604.412 53.4175H603.14ZM613.49 53.4175C613.358 53.0073 613.292 52.6541 613.292 52.3579C612.736 52.9093 612.259 53.2603 611.863 53.4106C611.471 53.5565 611.095 53.6294 610.735 53.6294C610.129 53.6294 609.607 53.4448 609.17 53.0757C608.737 52.702 608.52 52.1893 608.52 51.5376C608.52 50.7993 608.825 50.2297 609.436 49.8286C610.051 49.4276 611.109 49.0812 612.608 48.7896L613.292 48.6597V47.7983C613.292 47.3289 613.134 47.0008 612.82 46.814C612.505 46.6226 612.127 46.5269 611.685 46.5269C611.157 46.5269 610.744 46.6431 610.448 46.8755C610.152 47.1079 610.004 47.3791 610.004 47.689V47.7983H608.623V47.6958C608.623 47.3586 608.764 47.0099 609.047 46.6499C609.334 46.2899 609.712 46.0187 610.181 45.8364C610.655 45.6541 611.172 45.563 611.733 45.563C612.289 45.563 612.795 45.6496 613.251 45.8228C613.706 45.9959 614.039 46.2306 614.249 46.5269C614.458 46.8185 614.563 47.37 614.563 48.1812V51.1479C614.563 51.4715 614.57 51.8133 614.584 52.1733C614.602 52.5288 614.684 52.9435 614.83 53.4175H613.49ZM613.292 49.562L612.909 49.6577C611.619 49.9722 610.794 50.2707 610.434 50.5532C610.074 50.8358 609.894 51.173 609.894 51.5649C609.894 51.7655 609.947 51.9523 610.051 52.1255C610.161 52.2987 610.32 52.4331 610.53 52.5288C610.74 52.6245 610.947 52.6724 611.152 52.6724C611.507 52.6724 611.856 52.5698 612.198 52.3647C612.544 52.1551 612.813 51.8771 613.005 51.5308C613.196 51.1844 613.292 50.7811 613.292 50.3208V49.562ZM616.532 45.7817H617.803V53.4175H616.532V45.7817ZM616.532 44.0864V42.8081H617.803V44.0864H616.532ZM621.098 53.4175H619.827V42.3843H621.098V53.4175ZM627.832 53.4175C627.7 53.0073 627.633 52.6541 627.633 52.3579C627.077 52.9093 626.601 53.2603 626.205 53.4106C625.813 53.5565 625.437 53.6294 625.077 53.6294C624.471 53.6294 623.949 53.4448 623.511 53.0757C623.078 52.702 622.862 52.1893 622.862 51.5376C622.862 50.7993 623.167 50.2297 623.778 49.8286C624.393 49.4276 625.45 49.0812 626.95 48.7896L627.633 48.6597V47.7983C627.633 47.3289 627.476 47.0008 627.162 46.814C626.847 46.6226 626.469 46.5269 626.027 46.5269C625.498 46.5269 625.086 46.6431 624.79 46.8755C624.493 47.1079 624.345 47.3791 624.345 47.689V47.7983H622.964V47.6958C622.964 47.3586 623.106 47.0099 623.388 46.6499C623.675 46.2899 624.054 46.0187 624.523 45.8364C624.997 45.6541 625.514 45.563 626.075 45.563C626.631 45.563 627.137 45.6496 627.592 45.8228C628.048 45.9959 628.381 46.2306 628.59 46.5269C628.8 46.8185 628.905 47.37 628.905 48.1812V51.1479C628.905 51.4715 628.912 51.8133 628.925 52.1733C628.944 52.5288 629.026 52.9435 629.172 53.4175H627.832ZM627.633 49.562L627.251 49.6577C625.961 49.9722 625.136 50.2707 624.776 50.5532C624.416 50.8358 624.236 51.173 624.236 51.5649C624.236 51.7655 624.288 51.9523 624.393 52.1255C624.503 52.2987 624.662 52.4331 624.872 52.5288C625.081 52.6245 625.289 52.6724 625.494 52.6724C625.849 52.6724 626.198 52.5698 626.54 52.3647C626.886 52.1551 627.155 51.8771 627.346 51.5308C627.538 51.1844 627.633 50.7811 627.633 50.3208V49.562ZM632.043 53.4175H630.771C630.794 53.1668 630.812 52.8615 630.826 52.5015C630.844 52.1414 630.858 51.8475 630.867 51.6196C630.876 51.3918 630.88 51.2391 630.88 51.1616V42.3843H632.152V47.1079C632.43 46.675 632.69 46.3605 632.931 46.1646C633.177 45.9686 633.444 45.8205 633.731 45.7202C634.023 45.62 634.328 45.5698 634.647 45.5698C635.226 45.5698 635.757 45.7293 636.24 46.0483C636.723 46.3628 637.099 46.8345 637.368 47.4634C637.637 48.0923 637.771 48.7987 637.771 49.5825C637.771 50.7446 637.491 51.7108 636.93 52.481C636.37 53.2466 635.588 53.6294 634.586 53.6294C634.257 53.6294 633.95 53.5815 633.663 53.4858C633.376 53.3947 633.118 53.258 632.89 53.0757C632.667 52.8888 632.421 52.5584 632.152 52.0845L632.111 52.6382C632.093 52.9435 632.07 53.2033 632.043 53.4175ZM632.152 49.603C632.152 50.4689 632.339 51.1799 632.713 51.7358C633.086 52.2918 633.61 52.5698 634.285 52.5698C634.905 52.5698 635.42 52.3237 635.83 51.8315C636.24 51.3394 636.445 50.6034 636.445 49.6235C636.445 48.4797 636.235 47.6867 635.816 47.2446C635.397 46.798 634.898 46.5747 634.319 46.5747C633.913 46.5747 633.535 46.6978 633.184 46.9438C632.838 47.1854 632.578 47.5477 632.405 48.0308C632.236 48.5093 632.152 49.0334 632.152 49.603ZM640.69 53.4175H639.419V42.3843H640.69V53.4175ZM647.704 51.4556H648.975V51.5239C648.975 51.8612 648.841 52.2052 648.572 52.5562C648.303 52.9071 647.948 53.1737 647.505 53.356C647.063 53.5382 646.555 53.6294 645.981 53.6294C644.819 53.6294 643.921 53.2534 643.288 52.5015C642.659 51.7495 642.344 50.7993 642.344 49.6509C642.344 48.4751 642.677 47.5021 643.342 46.7319C644.012 45.9572 644.874 45.5698 645.926 45.5698C646.505 45.5698 647.029 45.6951 647.499 45.9458C647.968 46.1965 648.339 46.5884 648.613 47.1216C648.886 47.6502 649.023 48.3885 649.023 49.3364V49.7603H643.602C643.602 50.576 643.821 51.2482 644.258 51.7769C644.7 52.3055 645.311 52.5698 646.09 52.5698C646.651 52.5698 647.059 52.4627 647.314 52.2485C647.574 52.0298 647.704 51.7882 647.704 51.5239V51.4556ZM643.684 48.8032H647.806V48.6528C647.806 48.2974 647.72 47.9533 647.547 47.6206C647.378 47.2834 647.143 47.035 646.842 46.8755C646.542 46.7114 646.191 46.6294 645.79 46.6294C645.316 46.6294 644.878 46.8208 644.477 47.2036C644.076 47.5819 643.812 48.1151 643.684 48.8032Z" fill="black"/>
<path d="M26.7406 49.3524C27.0505 48.9468 27.3558 48.6415 27.6566 48.4364C27.9574 48.2313 28.2582 48.0809 28.559 47.9852C28.8597 47.885 29.1856 47.8348 29.5365 47.8348C30.448 47.8348 31.1771 48.1607 31.724 48.8124C32.2754 49.4595 32.5511 50.2456 32.5511 51.1708C32.5511 51.8179 32.4076 52.4058 32.1205 52.9344C31.8379 53.4631 31.4414 53.8778 30.931 54.1786C30.4252 54.4748 29.8715 54.6229 29.2699 54.6229C28.5726 54.6229 27.9164 54.4178 27.3011 54.0077C26.6905 53.593 26.2279 52.9709 25.9135 52.1415C25.599 51.3121 25.4418 50.2867 25.4418 49.0653C25.4418 47.3335 25.795 45.9527 26.5013 44.9227C27.2123 43.8928 28.2308 43.3778 29.557 43.3778C30.4594 43.3778 31.1384 43.576 31.5941 43.9725C32.0544 44.369 32.2845 44.8202 32.2845 45.326V45.3944H31.0131V45.326C31.0131 45.1073 30.8923 44.9045 30.6508 44.7177C30.4138 44.5308 30.056 44.4374 29.5775 44.4374C29.017 44.4374 28.5248 44.606 28.101 44.9432C27.6771 45.2805 27.3422 45.8342 27.0961 46.6044C26.8545 47.37 26.7338 48.1607 26.7338 48.9764L26.7406 49.3524ZM29.2699 53.5565C29.8259 53.5565 30.2907 53.3264 30.6644 52.8661C31.0381 52.4012 31.225 51.8225 31.225 51.1298C31.225 50.4416 31.0267 49.897 30.6302 49.496C30.2383 49.0949 29.7598 48.8944 29.1947 48.8944C28.5704 48.8944 28.0622 49.1246 27.6703 49.5848C27.2784 50.0406 27.0824 50.5852 27.0824 51.2186C27.0824 51.6379 27.1781 52.0367 27.3695 52.4149C27.5655 52.7886 27.8321 53.0734 28.1693 53.2694C28.5066 53.4608 28.8734 53.5565 29.2699 53.5565ZM39.2435 46.6659H40.515V54.3016H39.2435V46.6659ZM39.2435 44.9706V43.6923H40.515V44.9706H39.2435ZM47.2074 53.2216V54.288C46.5876 54.4384 46.1136 54.5135 45.7855 54.5135C45.3116 54.5135 44.8832 54.4178 44.5004 54.2264C44.1221 54.035 43.8327 53.757 43.6322 53.3925C43.4362 53.0279 43.3383 52.4468 43.3383 51.6493V47.7255H42.0121V46.6659H43.3383V44.8612H44.6097V46.6659H46.8383V47.7255H44.6097V51.287C44.6097 51.9615 44.6622 52.4309 44.767 52.6952C44.8718 52.955 45.0358 53.1464 45.2592 53.2694C45.487 53.3925 45.7582 53.454 46.0726 53.454C46.3233 53.454 46.7015 53.3765 47.2074 53.2216ZM53.7357 52.3397H55.0072V52.4081C55.0072 52.7453 54.8728 53.0894 54.6039 53.4403C54.335 53.7912 53.9795 54.0578 53.5375 54.2401C53.0954 54.4224 52.5873 54.5135 52.0131 54.5135C50.851 54.5135 49.9532 54.1376 49.3197 53.3856C48.6908 52.6337 48.3763 51.6835 48.3763 50.535C48.3763 49.3593 48.709 48.3863 49.3744 47.6161C50.0443 46.8413 50.9056 46.454 51.9584 46.454C52.5372 46.454 53.0612 46.5793 53.5306 46.83C54 47.0806 54.3715 47.4725 54.6449 48.0057C54.9183 48.5344 55.0551 49.2727 55.0551 50.2206V50.6444H49.6342C49.6342 51.4602 49.8529 52.1324 50.2904 52.661C50.7325 53.1897 51.3431 53.454 52.1224 53.454C52.683 53.454 53.0909 53.3469 53.3461 53.1327C53.6058 52.9139 53.7357 52.6724 53.7357 52.4081V52.3397ZM49.7162 49.6874H53.8383V49.537C53.8383 49.1815 53.7517 48.8374 53.5785 48.5048C53.4099 48.1675 53.1752 47.9191 52.8744 47.7596C52.5736 47.5956 52.2227 47.5135 51.8217 47.5135C51.3477 47.5135 50.9102 47.705 50.5092 48.0878C50.1081 48.466 49.8438 48.9992 49.7162 49.6874ZM58.0834 54.3016H56.8119V46.6659H58.0834V48.0468C58.3431 47.5865 58.5892 47.2561 58.8217 47.0555C59.0586 46.855 59.3161 46.7046 59.5941 46.6044C59.8721 46.5041 60.1683 46.454 60.4828 46.454C60.7972 46.454 61.098 46.5041 61.3851 46.6044C61.6722 46.7001 61.9206 46.8459 62.1302 47.0419C62.3399 47.2378 62.5472 47.5728 62.7523 48.0468C63.0121 47.6047 63.2673 47.2811 63.5179 47.076C63.7732 46.8664 64.0329 46.7115 64.2972 46.6112C64.5661 46.5064 64.851 46.454 65.1517 46.454C65.5847 46.454 65.9766 46.5565 66.3275 46.7616C66.6784 46.9621 66.9473 47.2492 67.1342 47.6229C67.3256 47.9966 67.4213 48.6324 67.4213 49.5302V54.3016H66.1429V50.0565C66.1429 49.1587 66.0883 48.5913 65.9789 48.3544C65.8741 48.1174 65.726 47.9374 65.5345 47.8143C65.3477 47.6867 65.1198 47.6229 64.851 47.6229C64.4727 47.6229 64.1241 47.7414 63.8051 47.9784C63.486 48.2108 63.2308 48.5253 63.0394 48.9218C62.848 49.3182 62.7523 49.8742 62.7523 50.5897V54.3016H61.4808V50.0565C61.4808 49.1587 61.4307 48.5913 61.3304 48.3544C61.2347 48.1174 61.0798 47.9351 60.8656 47.8075C60.6514 47.6799 60.4213 47.6161 60.1752 47.6161C59.8288 47.6161 59.487 47.7391 59.1498 47.9852C58.8171 48.2268 58.5551 48.5503 58.3636 48.9559C58.1768 49.357 58.0834 49.9016 58.0834 50.5897V54.3016ZM68.8636 52.285H70.1351V52.3124C70.1351 52.6405 70.2605 52.9139 70.5111 53.1327C70.7618 53.3469 71.1856 53.454 71.7826 53.454C72.3067 53.454 72.7305 53.3264 73.0541 53.0712C73.3822 52.816 73.5463 52.5152 73.5463 52.1688C73.5463 51.6994 73.2273 51.3667 72.5892 51.1708L71.9398 50.9725L71.5092 50.8358L70.6273 50.5624C69.6202 50.1932 69.1166 49.5803 69.1166 48.7235C69.1166 48.1219 69.3604 47.5933 69.848 47.1376C70.3357 46.6818 71.0603 46.454 72.0219 46.454C72.9698 46.454 73.6442 46.6499 74.0453 47.0419C74.4463 47.4292 74.6469 47.8599 74.6469 48.3339V48.3612H73.3685V48.3339C73.3685 48.0787 73.2386 47.8781 72.9789 47.7323C72.7237 47.5865 72.3819 47.5135 71.9535 47.5135C71.4431 47.5135 71.0511 47.6206 70.7777 47.8348C70.5088 48.0445 70.3744 48.3042 70.3744 48.6141C70.3744 48.8511 70.461 49.0448 70.6342 49.1952C70.8119 49.341 71.1081 49.4732 71.5228 49.5917L72.1381 49.7626L72.5824 49.8925C73.2022 50.0702 73.5873 50.1955 73.7377 50.2684C73.8926 50.3413 74.0476 50.4348 74.2025 50.5487C74.4167 50.7128 74.5739 50.911 74.6742 51.1434C74.779 51.3759 74.8314 51.647 74.8314 51.9569C74.8314 52.677 74.5717 53.2831 74.0521 53.7753C73.5372 54.2675 72.7829 54.5135 71.7894 54.5135C71.1605 54.5135 70.6387 54.4201 70.224 54.2333C69.8093 54.0464 69.4789 53.7889 69.2328 53.4608C68.9867 53.1281 68.8636 52.7453 68.8636 52.3124V52.285Z" fill="black"/>
<rect x="8" y="59.8624" width="658" height="1" fill="black"/>
<rect x="8" y="62.8624" width="658" height="1" fill="black"/>
</g>
<path d="M7.5 7.5H666.5V34.5H7.5V7.5Z" fill="white"/>
<rect x="11" y="13" width="652" height="1" fill="black"/>
<rect x="11" y="19" width="652" height="1" fill="black"/>
<rect x="11" y="25" width="652" height="1" fill="black"/>
<rect x="11" y="16" width="652" height="1" fill="black"/>
<rect x="11" y="22" width="652" height="1" fill="black"/>
<rect x="11" y="28" width="652" height="1" fill="black"/>
<rect x="21.5" y="13.5" width="15" height="15" fill="white" stroke="black"/>
<rect x="638.5" y="13.5" width="15" height="15" fill="white" stroke="black"/>
<rect x="638.5" y="13.5" width="9" height="9" stroke="black"/>
<rect width="210" height="26" transform="translate(232 7)" fill="white"/>
<path d="M245.286 19.68V14.66H248.626V19.68H245.286ZM248.626 21.34C249.093 21.34 249.526 21.2467 249.926 21.06C250.326 20.86 250.673 20.6067 250.966 20.3C251.273 19.98 251.513 19.62 251.686 19.22C251.86 18.82 251.946 18.4133 251.946 18V16.34C251.946 15.86 251.853 15.42 251.666 15.02C251.48 14.6067 251.226 14.2533 250.906 13.96C250.6 13.6533 250.246 13.42 249.846 13.26C249.446 13.0867 249.04 13 248.626 13H241.966V28H245.286V21.34H248.626ZM258.546 23H265.166V19.76C265.166 19.3333 265.073 18.9133 264.886 18.5C264.713 18.0867 264.473 17.72 264.166 17.4C263.86 17.08 263.493 16.8267 263.066 16.64C262.64 16.44 262.186 16.34 261.706 16.34H258.606C258.153 16.34 257.72 16.44 257.306 16.64C256.906 16.8267 256.546 17.08 256.226 17.4C255.92 17.72 255.673 18.0867 255.486 18.5C255.313 18.9133 255.226 19.3333 255.226 19.76V24.56C255.226 24.9733 255.313 25.3867 255.486 25.8C255.673 26.2133 255.92 26.5867 256.226 26.92C256.533 27.24 256.886 27.5 257.286 27.7C257.7 27.9 258.14 28 258.606 28H261.706C262.133 28 262.553 27.9133 262.966 27.74C263.38 27.5533 263.746 27.3067 264.066 27C264.4 26.68 264.666 26.32 264.866 25.92C265.066 25.52 265.166 25.1 265.166 24.66H263.526C263.526 24.9 263.473 25.12 263.366 25.32C263.26 25.52 263.12 25.6933 262.946 25.84C262.773 25.9867 262.573 26.1067 262.346 26.2C262.12 26.28 261.886 26.32 261.646 26.32H258.546V23ZM261.826 21.34H258.546V17.98H261.826V21.34ZM268.447 28H271.767V19.82C271.767 19.82 271.887 19.7267 272.127 19.54C272.367 19.34 272.707 19.1267 273.147 18.9C273.587 18.6733 274.114 18.4667 274.727 18.28C275.34 18.08 276.02 17.98 276.767 17.98V16.34C275.927 16.34 275.194 16.4267 274.567 16.6C273.954 16.7733 273.434 16.96 273.007 17.16C272.594 17.36 272.28 17.5467 272.067 17.72C271.867 17.8933 271.767 17.98 271.767 17.98V16.34H268.447V28ZM278.367 20.46L283.347 25V26.34H281.827C281.294 26.34 280.86 26.1867 280.527 25.88C280.207 25.5733 280.047 25.1667 280.047 24.66H278.367C278.367 25.1267 278.454 25.56 278.627 25.96C278.814 26.36 279.06 26.7133 279.367 27.02C279.687 27.3267 280.054 27.5667 280.467 27.74C280.894 27.9133 281.347 28 281.827 28H283.227C283.734 28 284.194 27.9133 284.607 27.74C285.034 27.5533 285.394 27.3067 285.687 27C285.994 26.68 286.227 26.32 286.387 25.92C286.56 25.5067 286.647 25.0733 286.647 24.62V23.36L281.687 19.12V18H283.327C283.834 18 284.24 18.1533 284.547 18.46C284.854 18.7533 285.007 19.1533 285.007 19.66H286.647C286.647 19.2067 286.554 18.78 286.367 18.38C286.194 17.98 285.947 17.6333 285.627 17.34C285.32 17.0333 284.96 16.7933 284.547 16.62C284.134 16.4333 283.694 16.34 283.227 16.34H281.827C281.347 16.34 280.894 16.4067 280.467 16.54C280.054 16.6733 279.687 16.8733 279.367 17.14C279.06 17.3933 278.814 17.7067 278.627 18.08C278.454 18.44 278.367 18.8467 278.367 19.3V20.46ZM293.308 28H296.468C296.975 28 297.435 27.9133 297.848 27.74C298.275 27.5533 298.635 27.3067 298.928 27C299.235 26.6933 299.468 26.3333 299.628 25.92C299.802 25.4933 299.888 25.04 299.888 24.56V19.76C299.888 19.3067 299.802 18.8733 299.628 18.46C299.468 18.0467 299.235 17.6867 298.928 17.38C298.635 17.06 298.275 16.8067 297.848 16.62C297.435 16.4333 296.975 16.34 296.468 16.34H293.308C292.828 16.34 292.382 16.4333 291.968 16.62C291.555 16.8067 291.195 17.06 290.888 17.38C290.582 17.6867 290.342 18.0467 290.168 18.46C289.995 18.8733 289.908 19.3067 289.908 19.76V24.56C289.908 25.04 289.988 25.4933 290.148 25.92C290.322 26.3333 290.555 26.6933 290.848 27C291.155 27.3067 291.515 27.5533 291.928 27.74C292.342 27.9133 292.802 28 293.308 28ZM296.568 26.32H293.228V18H296.568V26.32ZM309.688 16.34H303.168V28H306.488V18H309.828V28H313.148V19.76C313.148 19.3333 313.055 18.9133 312.868 18.5C312.695 18.0867 312.448 17.72 312.128 17.4C311.821 17.08 311.455 16.8267 311.028 16.64C310.615 16.44 310.168 16.34 309.688 16.34ZM319.908 18H323.088V19.68H319.788C319.361 19.68 318.948 19.76 318.548 19.92C318.148 20.08 317.788 20.3 317.468 20.58C317.161 20.86 316.908 21.1867 316.708 21.56C316.521 21.9333 316.428 22.34 316.428 22.78V24.56C316.428 25.08 316.515 25.5533 316.688 25.98C316.875 26.4067 317.121 26.7733 317.428 27.08C317.735 27.3733 318.088 27.6 318.488 27.76C318.901 27.92 319.335 28 319.788 28H326.408V19.76C326.408 19.3333 326.328 18.9133 326.168 18.5C326.008 18.0867 325.775 17.72 325.468 17.4C325.175 17.08 324.815 16.8267 324.388 16.64C323.961 16.44 323.481 16.34 322.948 16.34H319.868C318.695 16.34 317.828 16.62 317.268 17.18C316.708 17.7267 316.428 18.4267 316.428 19.28H318.048C318.048 18.8533 318.181 18.5333 318.448 18.32C318.728 18.1067 319.215 18 319.908 18ZM323.088 21.34V26.32H319.748V21.34H323.088ZM333.008 28V13H329.688V28H333.008ZM345.914 19.68V14.66H349.254V19.68H345.914ZM349.254 21.34C349.721 21.34 350.154 21.2467 350.554 21.06C350.954 20.86 351.301 20.6067 351.594 20.3C351.901 19.98 352.141 19.62 352.314 19.22C352.487 18.82 352.574 18.4133 352.574 18V16.34C352.574 15.86 352.481 15.42 352.294 15.02C352.107 14.6067 351.854 14.2533 351.534 13.96C351.227 13.6533 350.874 13.42 350.474 13.26C350.074 13.0867 349.667 13 349.254 13H342.594V28H345.914V21.34H349.254ZM355.854 28H359.174V19.82C359.174 19.82 359.294 19.7267 359.534 19.54C359.774 19.34 360.114 19.1267 360.554 18.9C360.994 18.6733 361.521 18.4667 362.134 18.28C362.747 18.08 363.427 17.98 364.174 17.98V16.34C363.334 16.34 362.601 16.4267 361.974 16.6C361.361 16.7733 360.841 16.96 360.414 17.16C360.001 17.36 359.687 17.5467 359.474 17.72C359.274 17.8933 359.174 17.98 359.174 17.98V16.34H355.854V28ZM369.174 28H372.334C372.841 28 373.301 27.9133 373.714 27.74C374.141 27.5533 374.501 27.3067 374.794 27C375.101 26.6933 375.334 26.3333 375.494 25.92C375.667 25.4933 375.754 25.04 375.754 24.56V19.76C375.754 19.3067 375.667 18.8733 375.494 18.46C375.334 18.0467 375.101 17.6867 374.794 17.38C374.501 17.06 374.141 16.8067 373.714 16.62C373.301 16.4333 372.841 16.34 372.334 16.34H369.174C368.694 16.34 368.247 16.4333 367.834 16.62C367.421 16.8067 367.061 17.06 366.754 17.38C366.447 17.6867 366.207 18.0467 366.034 18.46C365.861 18.8733 365.774 19.3067 365.774 19.76V24.56C365.774 25.04 365.854 25.4933 366.014 25.92C366.187 26.3333 366.421 26.6933 366.714 27C367.021 27.3067 367.381 27.5533 367.794 27.74C368.207 27.9133 368.667 28 369.174 28ZM372.434 26.32H369.094V18H372.434V26.32ZM385.754 14.66V13H382.414V14.66H385.754ZM385.754 28.76V16.34H382.414V30.36H380.874C380.394 30.36 379.967 30.22 379.594 29.94C379.22 29.66 379.034 29.2467 379.034 28.7H377.354C377.354 29.1267 377.447 29.54 377.634 29.94C377.834 30.34 378.094 30.6933 378.414 31C378.734 31.3067 379.1 31.5533 379.514 31.74C379.927 31.9267 380.354 32.02 380.794 32.02H382.294C382.68 32.02 383.08 31.9267 383.494 31.74C383.907 31.5667 384.28 31.3267 384.614 31.02C384.947 30.7267 385.22 30.38 385.434 29.98C385.647 29.5933 385.754 29.1867 385.754 28.76ZM392.332 23H398.952V19.76C398.952 19.3333 398.859 18.9133 398.672 18.5C398.499 18.0867 398.259 17.72 397.952 17.4C397.646 17.08 397.279 16.8267 396.852 16.64C396.426 16.44 395.972 16.34 395.492 16.34H392.392C391.939 16.34 391.506 16.44 391.092 16.64C390.692 16.8267 390.332 17.08 390.012 17.4C389.706 17.72 389.459 18.0867 389.272 18.5C389.099 18.9133 389.012 19.3333 389.012 19.76V24.56C389.012 24.9733 389.099 25.3867 389.272 25.8C389.459 26.2133 389.706 26.5867 390.012 26.92C390.319 27.24 390.672 27.5 391.072 27.7C391.486 27.9 391.926 28 392.392 28H395.492C395.919 28 396.339 27.9133 396.752 27.74C397.166 27.5533 397.532 27.3067 397.852 27C398.186 26.68 398.452 26.32 398.652 25.92C398.852 25.52 398.952 25.1 398.952 24.66H397.312C397.312 24.9 397.259 25.12 397.152 25.32C397.046 25.52 396.906 25.6933 396.732 25.84C396.559 25.9867 396.359 26.1067 396.132 26.2C395.906 26.28 395.672 26.32 395.432 26.32H392.332V23ZM395.612 21.34H392.332V17.98H395.612V21.34ZM405.553 26.32V17.98H407.153C407.407 17.98 407.64 18.04 407.853 18.16C408.08 18.2667 408.273 18.4133 408.433 18.6C408.607 18.7733 408.74 18.9733 408.833 19.2C408.94 19.4133 408.993 19.6333 408.993 19.86H410.653C410.653 19.42 410.553 18.9867 410.353 18.56C410.153 18.1333 409.887 17.76 409.553 17.44C409.233 17.1067 408.867 16.84 408.453 16.64C408.04 16.44 407.62 16.34 407.193 16.34H405.613C405.187 16.34 404.773 16.44 404.373 16.64C403.973 16.8267 403.613 17.08 403.293 17.4C402.973 17.72 402.713 18.0867 402.513 18.5C402.327 18.9133 402.233 19.3333 402.233 19.76V24.56C402.233 25 402.327 25.4267 402.513 25.84C402.713 26.2533 402.967 26.62 403.273 26.94C403.593 27.26 403.953 27.52 404.353 27.72C404.767 27.9067 405.187 28 405.613 28H407.193C407.62 28 408.04 27.9 408.453 27.7C408.867 27.4867 409.233 27.22 409.553 26.9C409.887 26.5667 410.153 26.1867 410.353 25.76C410.553 25.3333 410.653 24.9 410.653 24.46H408.993C408.993 24.7 408.947 24.9333 408.853 25.16C408.76 25.3733 408.627 25.5667 408.453 25.74C408.293 25.9133 408.1 26.0533 407.873 26.16C407.647 26.2667 407.407 26.32 407.153 26.32H405.553ZM415.511 13V16.34H413.911V18H415.511V26.16C415.511 26.4 415.558 26.6333 415.651 26.86C415.758 27.0733 415.891 27.2667 416.051 27.44C416.224 27.6133 416.424 27.7533 416.651 27.86C416.878 27.9533 417.111 28 417.351 28H420.491V26.32H418.831V18H420.491V16.34H418.831V13H415.511ZM423.772 20.46L428.752 25V26.34H427.232C426.699 26.34 426.266 26.1867 425.932 25.88C425.612 25.5733 425.452 25.1667 425.452 24.66H423.772C423.772 25.1267 423.859 25.56 424.032 25.96C424.219 26.36 424.466 26.7133 424.772 27.02C425.092 27.3267 425.459 27.5667 425.872 27.74C426.299 27.9133 426.752 28 427.232 28H428.632C429.139 28 429.599 27.9133 430.012 27.74C430.439 27.5533 430.799 27.3067 431.092 27C431.399 26.68 431.632 26.32 431.792 25.92C431.966 25.5067 432.052 25.0733 432.052 24.62V23.36L427.092 19.12V18H428.732C429.239 18 429.646 18.1533 429.952 18.46C430.259 18.7533 430.412 19.1533 430.412 19.66H432.052C432.052 19.2067 431.959 18.78 431.772 18.38C431.599 17.98 431.352 17.6333 431.032 17.34C430.726 17.0333 430.366 16.7933 429.952 16.62C429.539 16.4333 429.099 16.34 428.632 16.34H427.232C426.752 16.34 426.299 16.4067 425.872 16.54C425.459 16.6733 425.092 16.8733 424.772 17.14C424.466 17.3933 424.219 17.7067 424.032 18.08C423.859 18.44 423.772 18.8467 423.772 19.3V20.46Z" fill="black"/>
<path d="M33.192 15.344L28.949 19.586L24.707 15.344L23.293 16.758L27.535 21L23.293 25.242L24.707 26.656L28.949 22.414L33.192 26.656L34.606 25.242L30.364 21L34.606 16.758L33.192 15.344Z" fill="black"/>
<path d="M7.5 7.5H666.5V34.5H7.5V7.5Z" stroke="black"/>
<defs>
<filter id="filter0_d" x="0" y="0" width="676" height="365" filterUnits="userSpaceOnUse" color-interpolation-filters="sRGB">
<feFlood flood-opacity="0" result="BackgroundImageFix"/>
<feColorMatrix in="SourceAlpha" type="matrix" values="0 0 0 0 0 0 0 0 0 0 0 0 0 0 0 0 0 0 127 0"/>
<feMorphology radius="8" operator="dilate" in="SourceAlpha" result="effect1_dropShadow"/>
<feOffset dx="1" dy="1"/>
<feColorMatrix type="matrix" values="0 0 0 0 0 0 0 0 0 0 0 0 0 0 0 0 0 0 1 0"/>
<feBlend mode="normal" in2="BackgroundImageFix" result="effect1_dropShadow"/>
<feBlend mode="normal" in="SourceGraphic" in2="effect1_dropShadow" result="shape"/>
</filter>
<filter id="filter1_b" x="-43" y="-43" width="760" height="449" filterUnits="userSpaceOnUse" color-interpolation-filters="sRGB">
<feFlood flood-opacity="0" result="BackgroundImageFix"/>
<feGaussianBlur in="BackgroundImage" stdDeviation="25"/>
<feComposite in2="SourceAlpha" operator="in" result="effect1_backgroundBlur"/>
<feBlend mode="normal" in="SourceGraphic" in2="effect1_backgroundBlur" result="shape"/>
</filter>
<clipPath id="clip0">
<path d="M7 7H667V356H7V7Z" fill="white"/>
</clipPath>
<clipPath id="clip1">
<rect width="658" height="29" fill="white" transform="translate(8 34.9724)"/>
</clipPath>
</defs>
</svg>
