<svg width="49" height="46" viewBox="0 0 49 46" fill="none" xmlns="http://www.w3.org/2000/svg">
<rect x="8.92188" y="0.5" width="26" height="25" stroke="black"/>
<rect x="1.48438" y="25.5" width="47" height="14" stroke="black"/>
<rect x="0.546875" y="25.5" width="42" height="20" fill="white" stroke="black"/>
<rect x="5.67188" y="25.5" width="32" height="6" stroke="black"/>
<rect x="0.5" y="25.5" width="42" height="3" stroke="black"/>
<rect x="0.515625" y="25.5" width="42" height="11" stroke="black"/>
<path fill-rule="evenodd" clip-rule="evenodd" d="M18.9219 6H16.9219V7H18.9219V6ZM20.9219 10V9H16.9219V10H20.9219ZM16.9219 12H21.9219V13H16.9219V12ZM24.9219 16V15H16.9219V16H24.9219ZM16.9219 18H21.9219V19H16.9219V18ZM27.9219 12H22.9219V13H27.9219V12ZM19.9219 6H23.9219V7H19.9219V6ZM24.9219 9H21.9219V10H24.9219V9ZM24.9219 6H27.9219V7H24.9219V6ZM27.9219 9H25.9219V10H27.9219V9ZM25.9219 15H27.9219V16H25.9219V15ZM27.9219 18H22.9219V19H27.9219V18Z" fill="black"/>
<path fill-rule="evenodd" clip-rule="evenodd" d="M11.9219 3H12.9219V4H11.9219V3ZM11.9219 6H12.9219V7H11.9219V6ZM12.9219 9H11.9219V10H12.9219V9ZM11.9219 12H12.9219V13H11.9219V12ZM12.9219 15H11.9219V16H12.9219V15ZM11.9219 18H12.9219V19H11.9219V18ZM12.9219 21H11.9219V22H12.9219V21Z" fill="black"/>
<path fill-rule="evenodd" clip-rule="evenodd" d="M31.9219 3H32.9219V4H31.9219V3ZM31.9219 6H32.9219V7H31.9219V6ZM32.9219 9H31.9219V10H32.9219V9ZM31.9219 12H32.9219V13H31.9219V12ZM32.9219 15H31.9219V16H32.9219V15ZM31.9219 18H32.9219V19H31.9219V18ZM32.9219 21H31.9219V22H32.9219V21Z" fill="black"/>
<rect x="4.92188" y="41" width="1" height="1" fill="black"/>
</svg>
