<svg width="584" height="328" viewBox="0 0 584 328" fill="none" xmlns="http://www.w3.org/2000/svg">
<g filter="url(#filter0_d)">
<g clip-path="url(#clip0)">
<g filter="url(#filter1_b)">
<rect x="1" y="1" width="581" height="325" fill="#1E4D79"/>
</g>
<rect x="554.5" y="1.5" width="27" height="324" fill="white" stroke="black"/>
<path d="M577.556 311.4L567.778 321L558 311.4L562.889 311.4L562.889 305L572.667 305L572.667 311.4L577.556 311.4Z" stroke="black"/>
<rect x="581.5" y="27.5" width="27" height="27" transform="rotate(90 581.5 27.5)" fill="white" stroke="black"/>
<path d="M578 42.6L568.222 33L558.444 42.6L563.333 42.6L563.333 49L573.111 49L573.111 42.6L578 42.6Z" stroke="black"/>
<line x1="554" y1="298.5" x2="582" y2="298.5" stroke="black"/>
</g>
<path d="M1.5 1.5H581.5V325.5H1.5V1.5Z" stroke="black"/>
</g>
<path d="M1.5 1.5H581.5V28.5H1.5V1.5Z" fill="white"/>
<rect x="5" y="7" width="573" height="1" fill="black"/>
<rect x="5" y="13" width="573" height="1" fill="black"/>
<rect x="5" y="19" width="573" height="1" fill="black"/>
<rect x="5" y="10" width="573" height="1" fill="black"/>
<rect x="5" y="16" width="573" height="1" fill="black"/>
<rect x="5" y="22" width="573" height="1" fill="black"/>
<rect x="15.5" y="7.5" width="15" height="15" fill="white" stroke="black"/>
<rect x="553.5" y="7.5" width="15" height="15" fill="white" stroke="black"/>
<rect x="553.5" y="7.5" width="9" height="9" stroke="black"/>
<rect width="180" height="26" transform="translate(202 1)" fill="white"/>
<path d="M220.343 7H210.343V8.66H213.683V22H217.003V8.66H220.343V7ZM225.263 17H231.883V13.76C231.883 13.3333 231.79 12.9133 231.603 12.5C231.43 12.0867 231.19 11.72 230.883 11.4C230.577 11.08 230.21 10.8267 229.783 10.64C229.357 10.44 228.903 10.34 228.423 10.34H225.323C224.87 10.34 224.437 10.44 224.023 10.64C223.623 10.8267 223.263 11.08 222.943 11.4C222.637 11.72 222.39 12.0867 222.203 12.5C222.03 12.9133 221.943 13.3333 221.943 13.76V18.56C221.943 18.9733 222.03 19.3867 222.203 19.8C222.39 20.2133 222.637 20.5867 222.943 20.92C223.25 21.24 223.603 21.5 224.003 21.7C224.417 21.9 224.857 22 225.323 22H228.423C228.85 22 229.27 21.9133 229.683 21.74C230.097 21.5533 230.463 21.3067 230.783 21C231.117 20.68 231.383 20.32 231.583 19.92C231.783 19.52 231.883 19.1 231.883 18.66H230.243C230.243 18.9 230.19 19.12 230.083 19.32C229.977 19.52 229.837 19.6933 229.663 19.84C229.49 19.9867 229.29 20.1067 229.063 20.2C228.837 20.28 228.603 20.32 228.363 20.32H225.263V17ZM228.543 15.34H225.263V11.98H228.543V15.34ZM235.164 22H238.484V13.82C238.484 13.82 238.604 13.7267 238.844 13.54C239.084 13.34 239.424 13.1267 239.864 12.9C240.304 12.6733 240.831 12.4667 241.444 12.28C242.057 12.08 242.737 11.98 243.484 11.98V10.34C242.644 10.34 241.911 10.4267 241.284 10.6C240.671 10.7733 240.151 10.96 239.724 11.16C239.311 11.36 238.997 11.5467 238.784 11.72C238.584 11.8933 238.484 11.98 238.484 11.98V10.34H235.164V22ZM251.744 12V22H255.064V12H258.404V22H261.724V13.74C261.724 13.3 261.631 12.88 261.444 12.48C261.271 12.0667 261.031 11.7067 260.724 11.4C260.417 11.08 260.057 10.8267 259.644 10.64C259.231 10.44 258.797 10.34 258.344 10.34H245.084V22H248.404V12H251.744ZM268.324 22V10.34H265.004V22H268.324ZM268.324 8.66V7H265.004V8.66H268.324ZM278.104 10.34H271.584V22H274.904V12H278.244V22H281.564V13.76C281.564 13.3333 281.471 12.9133 281.284 12.5C281.111 12.0867 280.864 11.72 280.544 11.4C280.237 11.08 279.871 10.8267 279.444 10.64C279.031 10.44 278.584 10.34 278.104 10.34ZM288.324 12H291.504V13.68H288.204C287.777 13.68 287.364 13.76 286.964 13.92C286.564 14.08 286.204 14.3 285.884 14.58C285.577 14.86 285.324 15.1867 285.124 15.56C284.937 15.9333 284.844 16.34 284.844 16.78V18.56C284.844 19.08 284.931 19.5533 285.104 19.98C285.291 20.4067 285.537 20.7733 285.844 21.08C286.151 21.3733 286.504 21.6 286.904 21.76C287.317 21.92 287.751 22 288.204 22H294.824V13.76C294.824 13.3333 294.744 12.9133 294.584 12.5C294.424 12.0867 294.191 11.72 293.884 11.4C293.591 11.08 293.231 10.8267 292.804 10.64C292.377 10.44 291.897 10.34 291.364 10.34H288.284C287.111 10.34 286.244 10.62 285.684 11.18C285.124 11.7267 284.844 12.4267 284.844 13.28H286.464C286.464 12.8533 286.597 12.5333 286.864 12.32C287.144 12.1067 287.631 12 288.324 12ZM291.504 15.34V20.32H288.164V15.34H291.504ZM301.424 22V7H298.104V22H301.424ZM311.01 15.36H319.33V13.66H311.01V15.36ZM330.517 7V10.34H328.917V12H330.517V20.16C330.517 20.4 330.563 20.6333 330.657 20.86C330.763 21.0733 330.897 21.2667 331.057 21.44C331.23 21.6133 331.43 21.7533 331.657 21.86C331.883 21.9533 332.117 22 332.357 22H335.497V20.32H333.837V12H335.497V10.34H333.837V7H330.517ZM338.778 14.46L343.758 19V20.34H342.238C341.705 20.34 341.271 20.1867 340.938 19.88C340.618 19.5733 340.458 19.1667 340.458 18.66H338.778C338.778 19.1267 338.865 19.56 339.038 19.96C339.225 20.36 339.471 20.7133 339.778 21.02C340.098 21.3267 340.465 21.5667 340.878 21.74C341.305 21.9133 341.758 22 342.238 22H343.638C344.145 22 344.605 21.9133 345.018 21.74C345.445 21.5533 345.805 21.3067 346.098 21C346.405 20.68 346.638 20.32 346.798 19.92C346.971 19.5067 347.058 19.0733 347.058 18.62V17.36L342.098 13.12V12H343.738C344.245 12 344.651 12.1533 344.958 12.46C345.265 12.7533 345.418 13.1533 345.418 13.66H347.058C347.058 13.2067 346.965 12.78 346.778 12.38C346.605 11.98 346.358 11.6333 346.038 11.34C345.731 11.0333 345.371 10.7933 344.958 10.62C344.545 10.4333 344.105 10.34 343.638 10.34H342.238C341.758 10.34 341.305 10.4067 340.878 10.54C340.465 10.6733 340.098 10.8733 339.778 11.14C339.471 11.3933 339.225 11.7067 339.038 12.08C338.865 12.44 338.778 12.8467 338.778 13.3V14.46ZM353.639 20.32V11.98H355.239C355.492 11.98 355.726 12.04 355.939 12.16C356.166 12.2667 356.359 12.4133 356.519 12.6C356.692 12.7733 356.826 12.9733 356.919 13.2C357.026 13.4133 357.079 13.6333 357.079 13.86H358.739C358.739 13.42 358.639 12.9867 358.439 12.56C358.239 12.1333 357.972 11.76 357.639 11.44C357.319 11.1067 356.952 10.84 356.539 10.64C356.126 10.44 355.706 10.34 355.279 10.34H353.699C353.272 10.34 352.859 10.44 352.459 10.64C352.059 10.8267 351.699 11.08 351.379 11.4C351.059 11.72 350.799 12.0867 350.599 12.5C350.412 12.9133 350.319 13.3333 350.319 13.76V18.56C350.319 19 350.412 19.4267 350.599 19.84C350.799 20.2533 351.052 20.62 351.359 20.94C351.679 21.26 352.039 21.52 352.439 21.72C352.852 21.9067 353.272 22 353.699 22H355.279C355.706 22 356.126 21.9 356.539 21.7C356.952 21.4867 357.319 21.22 357.639 20.9C357.972 20.5667 358.239 20.1867 358.439 19.76C358.639 19.3333 358.739 18.9 358.739 18.46H357.079C357.079 18.7 357.032 18.9333 356.939 19.16C356.846 19.3733 356.712 19.5667 356.539 19.74C356.379 19.9133 356.186 20.0533 355.959 20.16C355.732 20.2667 355.492 20.32 355.239 20.32H353.639ZM361.997 22H365.317V11.98H368.657V22H371.977V13.74C371.977 13.2733 371.89 12.8333 371.717 12.42C371.544 12.0067 371.304 11.6467 370.997 11.34C370.69 11.0333 370.324 10.7933 369.897 10.62C369.484 10.4333 369.037 10.34 368.557 10.34H365.317V7H361.997V22Z" fill="black"/>
<path d="M27.192 9.34399L22.949 13.586L18.707 9.34399L17.293 10.758L21.535 15L17.293 19.242L18.707 20.656L22.949 16.414L27.192 20.656L28.606 19.242L24.364 15L28.606 10.758L27.192 9.34399Z" fill="black"/>
<path d="M1.5 1.5H581.5V28.5H1.5V1.5Z" stroke="black"/>
<defs>
<filter id="filter0_d" x="1" y="1" width="583" height="327" filterUnits="userSpaceOnUse" color-interpolation-filters="sRGB">
<feFlood flood-opacity="0" result="BackgroundImageFix"/>
<feColorMatrix in="SourceAlpha" type="matrix" values="0 0 0 0 0 0 0 0 0 0 0 0 0 0 0 0 0 0 127 0"/>
<feMorphology radius="1" operator="dilate" in="SourceAlpha" result="effect1_dropShadow"/>
<feOffset dx="1" dy="1"/>
<feColorMatrix type="matrix" values="0 0 0 0 0 0 0 0 0 0 0 0 0 0 0 0 0 0 1 0"/>
<feBlend mode="normal" in2="BackgroundImageFix" result="effect1_dropShadow"/>
<feBlend mode="normal" in="SourceGraphic" in2="effect1_dropShadow" result="shape"/>
</filter>
<filter id="filter1_b" x="-49" y="-49" width="681" height="425" filterUnits="userSpaceOnUse" color-interpolation-filters="sRGB">
<feFlood flood-opacity="0" result="BackgroundImageFix"/>
<feGaussianBlur in="BackgroundImage" stdDeviation="25"/>
<feComposite in2="SourceAlpha" operator="in" result="effect1_backgroundBlur"/>
<feBlend mode="normal" in="SourceGraphic" in2="effect1_backgroundBlur" result="shape"/>
</filter>
<clipPath id="clip0">
<path d="M1 1H582V326H1V1Z" fill="white"/>
</clipPath>
</defs>
</svg>
