<svg width="395" height="240" viewBox="0 0 395 240" fill="none" xmlns="http://www.w3.org/2000/svg">
<g filter="url(#filter0_d)">
<g clip-path="url(#clip0)">
<g filter="url(#filter1_b)">
<rect x="1" y="1" width="392" height="237" fill="white"/>
</g>
</g>
<path d="M1.5 1.5H392.5V237.5H1.5V1.5Z" stroke="black"/>
</g>
<path d="M1.5 1.5H392.5V28.5H1.5V1.5Z" fill="white"/>
<rect x="5" y="7" width="384" height="1" fill="black"/>
<rect x="5" y="13" width="384" height="1" fill="black"/>
<rect x="5" y="19" width="384" height="1" fill="black"/>
<rect x="5" y="10" width="384" height="1" fill="black"/>
<rect x="5" y="16" width="384" height="1" fill="black"/>
<rect x="5" y="22" width="384" height="1" fill="black"/>
<rect x="15.5" y="7.5" width="15" height="15" fill="white" stroke="black"/>
<rect width="74" height="26" transform="translate(160 1)" fill="white"/>
<path d="M178.01 7H168.01V8.66H171.35V22H174.67V8.66H178.01V7ZM179.61 22H182.93V13.82C182.93 13.82 183.05 13.7267 183.29 13.54C183.53 13.34 183.87 13.1267 184.31 12.9C184.75 12.6733 185.276 12.4667 185.89 12.28C186.503 12.08 187.183 11.98 187.93 11.98V10.34C187.09 10.34 186.356 10.4267 185.73 10.6C185.116 10.7733 184.596 10.96 184.17 11.16C183.756 11.36 183.443 11.5467 183.23 11.72C183.03 11.8933 182.93 11.98 182.93 11.98V10.34H179.61V22ZM193.01 12H196.19V13.68H192.89C192.463 13.68 192.05 13.76 191.65 13.92C191.25 14.08 190.89 14.3 190.57 14.58C190.263 14.86 190.01 15.1867 189.81 15.56C189.623 15.9333 189.53 16.34 189.53 16.78V18.56C189.53 19.08 189.616 19.5533 189.79 19.98C189.976 20.4067 190.223 20.7733 190.53 21.08C190.836 21.3733 191.19 21.6 191.59 21.76C192.003 21.92 192.436 22 192.89 22H199.51V13.76C199.51 13.3333 199.43 12.9133 199.27 12.5C199.11 12.0867 198.876 11.72 198.57 11.4C198.276 11.08 197.916 10.8267 197.49 10.64C197.063 10.44 196.583 10.34 196.05 10.34H192.97C191.796 10.34 190.93 10.62 190.37 11.18C189.81 11.7267 189.53 12.4267 189.53 13.28H191.15C191.15 12.8533 191.283 12.5333 191.55 12.32C191.83 12.1067 192.316 12 193.01 12ZM196.19 15.34V20.32H192.85V15.34H196.19ZM202.789 14.46L207.769 19V20.34H206.249C205.716 20.34 205.283 20.1867 204.949 19.88C204.629 19.5733 204.469 19.1667 204.469 18.66H202.789C202.789 19.1267 202.876 19.56 203.049 19.96C203.236 20.36 203.483 20.7133 203.789 21.02C204.109 21.3267 204.476 21.5667 204.889 21.74C205.316 21.9133 205.769 22 206.249 22H207.649C208.156 22 208.616 21.9133 209.029 21.74C209.456 21.5533 209.816 21.3067 210.109 21C210.416 20.68 210.649 20.32 210.809 19.92C210.983 19.5067 211.069 19.0733 211.069 18.62V17.36L206.109 13.12V12H207.749C208.256 12 208.663 12.1533 208.969 12.46C209.276 12.7533 209.429 13.1533 209.429 13.66H211.069C211.069 13.2067 210.976 12.78 210.789 12.38C210.616 11.98 210.369 11.6333 210.049 11.34C209.743 11.0333 209.383 10.7933 208.969 10.62C208.556 10.4333 208.116 10.34 207.649 10.34H206.249C205.769 10.34 205.316 10.4067 204.889 10.54C204.476 10.6733 204.109 10.8733 203.789 11.14C203.483 11.3933 203.236 11.7067 203.049 12.08C202.876 12.44 202.789 12.8467 202.789 13.3V14.46ZM214.331 22H217.651V11.98H220.991V22H224.311V13.74C224.311 13.2733 224.224 12.8333 224.051 12.42C223.877 12.0067 223.637 11.6467 223.331 11.34C223.024 11.0333 222.657 10.7933 222.231 10.62C221.817 10.4333 221.371 10.34 220.891 10.34H217.651V7H214.331V22Z" fill="black"/>
<path d="M27.192 9.34399L22.949 13.586L18.707 9.34399L17.293 10.758L21.535 15L17.293 19.242L18.707 20.656L22.949 16.414L27.192 20.656L28.606 19.242L24.364 15L28.606 10.758L27.192 9.34399Z" fill="black"/>
<path d="M1.5 1.5H392.5V28.5H1.5V1.5Z" stroke="black"/>
<rect x="31.5" y="61" width="45" height="29" rx="1.5" fill="white" stroke="black"/>
<path d="M37.9142 56.5858L33.5 61H52.5L48.5959 56.6621C48.2166 56.2406 47.6762 56 47.1093 56H39.3284C38.798 56 38.2893 56.2107 37.9142 56.5858Z" fill="white" stroke="black"/>
<rect width="46" height="19" transform="translate(31 91.5)" fill="white"/>
<path d="M36.2168 106.5V105.399C36.2168 104.825 36.3945 104.201 36.75 103.526C37.1055 102.847 37.7025 102.184 38.541 101.537L39.2588 100.983C40.2158 100.245 40.8242 99.6937 41.084 99.3291C41.3392 98.9645 41.4668 98.584 41.4668 98.1875C41.4668 97.7819 41.2959 97.4219 40.9541 97.1074C40.6123 96.793 40.1201 96.6357 39.4775 96.6357C38.8942 96.6357 38.4613 96.7497 38.1787 96.9775C37.8962 97.2008 37.7549 97.4538 37.7549 97.7363V97.8047H36.4834V97.7363C36.4834 97.3626 36.6087 97.0094 36.8594 96.6768C37.1146 96.3441 37.4564 96.0775 37.8848 95.877C38.3177 95.6764 38.8623 95.5762 39.5186 95.5762C40.7171 95.5762 41.5716 95.8314 42.082 96.3418C42.5924 96.8477 42.8477 97.4561 42.8477 98.167C42.8477 98.5452 42.7679 98.9258 42.6084 99.3086C42.4489 99.6914 42.1322 100.092 41.6582 100.512C41.1888 100.926 40.806 101.236 40.5098 101.441L39.9902 101.797C38.3587 102.918 37.543 104.009 37.543 105.071V105.331H43.0596V106.5H36.2168ZM49 106.821C47.847 106.821 46.9128 106.318 46.1973 105.311C45.4863 104.299 45.1309 102.927 45.1309 101.195C45.1309 99.4635 45.4863 98.0941 46.1973 97.0869C46.9128 96.0798 47.847 95.5762 49 95.5762C50.1576 95.5762 51.0918 96.0798 51.8027 97.0869C52.5182 98.0941 52.876 99.4635 52.876 101.195C52.876 102.927 52.5182 104.299 51.8027 105.311C51.0918 106.318 50.1576 106.821 49 106.821ZM49 105.755C49.8978 105.755 50.5472 105.295 50.9482 104.374C51.3493 103.449 51.5498 102.389 51.5498 101.195C51.5498 100.006 51.3493 98.9486 50.9482 98.0234C50.5472 97.0983 49.8978 96.6357 49 96.6357C48.1068 96.6357 47.4596 97.0983 47.0586 98.0234C46.6576 98.9486 46.457 100.006 46.457 101.195C46.457 102.389 46.6576 103.449 47.0586 104.374C47.4596 105.295 48.1068 105.755 49 105.755ZM54.8926 106.5V105.399C54.8926 104.825 55.0703 104.201 55.4258 103.526C55.7812 102.847 56.3783 102.184 57.2168 101.537L57.9346 100.983C58.8916 100.245 59.5 99.6937 59.7598 99.3291C60.015 98.9645 60.1426 98.584 60.1426 98.1875C60.1426 97.7819 59.9717 97.4219 59.6299 97.1074C59.2881 96.793 58.7959 96.6357 58.1533 96.6357C57.57 96.6357 57.137 96.7497 56.8545 96.9775C56.5719 97.2008 56.4307 97.4538 56.4307 97.7363V97.8047H55.1592V97.7363C55.1592 97.3626 55.2845 97.0094 55.5352 96.6768C55.7904 96.3441 56.1322 96.0775 56.5605 95.877C56.9935 95.6764 57.5381 95.5762 58.1943 95.5762C59.3929 95.5762 60.2474 95.8314 60.7578 96.3418C61.2682 96.8477 61.5234 97.4561 61.5234 98.167C61.5234 98.5452 61.4437 98.9258 61.2842 99.3086C61.1247 99.6914 60.8079 100.092 60.334 100.512C59.8646 100.926 59.4818 101.236 59.1855 101.441L58.666 101.797C57.0345 102.918 56.2188 104.009 56.2188 105.071V105.331H61.7354V106.5H54.8926ZM67.6758 106.821C66.5228 106.821 65.5885 106.318 64.873 105.311C64.1621 104.299 63.8066 102.927 63.8066 101.195C63.8066 99.4635 64.1621 98.0941 64.873 97.0869C65.5885 96.0798 66.5228 95.5762 67.6758 95.5762C68.8333 95.5762 69.7676 96.0798 70.4785 97.0869C71.194 98.0941 71.5518 99.4635 71.5518 101.195C71.5518 102.927 71.194 104.299 70.4785 105.311C69.7676 106.318 68.8333 106.821 67.6758 106.821ZM67.6758 105.755C68.5736 105.755 69.223 105.295 69.624 104.374C70.0251 103.449 70.2256 102.389 70.2256 101.195C70.2256 100.006 70.0251 98.9486 69.624 98.0234C69.223 97.0983 68.5736 96.6357 67.6758 96.6357C66.7826 96.6357 66.1354 97.0983 65.7344 98.0234C65.3333 98.9486 65.1328 100.006 65.1328 101.195C65.1328 102.389 65.3333 103.449 65.7344 104.374C66.1354 105.295 66.7826 105.755 67.6758 105.755Z" fill="black"/>
<defs>
<filter id="filter0_d" x="1" y="1" width="394" height="239" filterUnits="userSpaceOnUse" color-interpolation-filters="sRGB">
<feFlood flood-opacity="0" result="BackgroundImageFix"/>
<feColorMatrix in="SourceAlpha" type="matrix" values="0 0 0 0 0 0 0 0 0 0 0 0 0 0 0 0 0 0 127 0"/>
<feMorphology radius="1" operator="dilate" in="SourceAlpha" result="effect1_dropShadow"/>
<feOffset dx="1" dy="1"/>
<feColorMatrix type="matrix" values="0 0 0 0 0 0 0 0 0 0 0 0 0 0 0 0 0 0 1 0"/>
<feBlend mode="normal" in2="BackgroundImageFix" result="effect1_dropShadow"/>
<feBlend mode="normal" in="SourceGraphic" in2="effect1_dropShadow" result="shape"/>
</filter>
<filter id="filter1_b" x="-49" y="-49" width="492" height="337" filterUnits="userSpaceOnUse" color-interpolation-filters="sRGB">
<feFlood flood-opacity="0" result="BackgroundImageFix"/>
<feGaussianBlur in="BackgroundImage" stdDeviation="25"/>
<feComposite in2="SourceAlpha" operator="in" result="effect1_backgroundBlur"/>
<feBlend mode="normal" in="SourceGraphic" in2="effect1_backgroundBlur" result="shape"/>
</filter>
<clipPath id="clip0">
<path d="M1 1H393V238H1V1Z" fill="white"/>
</clipPath>
</defs>
</svg>
